<svg id="Layer_1" data-name="Layer 1" xmlns="http://www.w3.org/2000/svg" viewBox="0 0 378.92 213.97"><defs><style>.cls-1,.cls-4{font-size:50.24px;}.cls-1,.cls-4,.cls-5{fill:#fff;}.cls-1{font-family:Syne-Regular, Syne;}.cls-2{letter-spacing:-0.03em;}.cls-3{letter-spacing:0em;}.cls-4{font-family:Syne-Bold, Syne;font-weight:700;}.cls-6,.cls-8{fill:none;}.cls-6{stroke:#000;stroke-miterlimit:10;}.cls-7{fill:#ffd82a;}.cls-9{fill:#ffbf00;}</style></defs><text class="cls-1" transform="translate(3.65 203.06)">NK<tspan class="cls-2" x="67.16" y="0">W</tspan><tspan class="cls-3" x="117.15" y="0">O </tspan></text><text class="cls-4" transform="translate(164.54 203.06)">NNEWI</text><polygon class="cls-5" points="209.39 0 168.97 156.08 110.67 156.08 107.89 149.98 61.56 48.77 33.79 156.08 0 156.08 39.99 1.64 40.45 0 75.22 0 120.88 99.8 146.74 0 209.39 0"/><line class="cls-6" x1="109.65" y1="73.34" x2="109.48" y2="73.34"/><polygon class="cls-5" points="378.92 0 341.15 145.76 338.48 156.08 309.91 156.08 306.6 148.84 261.22 49.67 233.66 156.08 168.82 156.08 209.24 0 274.45 0 319.59 98.66 345.16 0 378.92 0"/><path class="cls-7" d="M538.52,532.85a7.87,7.87,0,0,1,7.81,7.56,8,8,0,0,1-8.08,7.88,7.69,7.69,0,0,1-7.43-7.88A7.6,7.6,0,0,1,538.52,532.85Zm5.55,7.55c-2.8-1.75-4.49-3.63-5.79-3.39s-3,2.4-3.35,4c-.16.83,2.28,3.07,3.53,3C539.94,544,541.39,542.24,544.07,540.4Z" transform="translate(-369.01 -432.02)"/><path class="cls-7" d="M577.08,540.69a7.8,7.8,0,1,1-15.58-.57,7.8,7.8,0,0,1,15.58.57Zm-2.19-.4c-2.82-1.67-4.4-3.33-5.89-3.26-1.22.06-3.49,2.47-3.27,3.32.4,1.51,2.22,3.5,3.63,3.65S572.23,542.19,574.89,540.29Z" transform="translate(-369.01 -432.02)"/><path class="cls-8" d="M580.29,520.69q-12.52,0-24.91,0l-1.46,5.52c6.73,0,13.46,0,20.19.13C578.1,526.43,579.79,524.86,580.29,520.69Z" transform="translate(-369.01 -432.02)"/><path class="cls-9" d="M520.63,481.28c-6.24,0-6.34.15-4.65,6.27,2.15,7.77,4.26,15.56,6.56,23.29,3.53,11.92,1,9.7,13.06,9.82,6.58.06,13.17.06,19.78.06l10.4-39.41Q543.21,481.3,520.63,481.28Z" transform="translate(-369.01 -432.02)"/><path class="cls-9" d="M531.65,526.34c-1.75,0-3.5.77-5.24,1.19l.23,1.85a21.39,21.39,0,0,0,4,.8c7.39,0,14.79.06,22.18.07l1.06-4C546.49,526.24,539.07,526.29,531.65,526.34Z" transform="translate(-369.01 -432.02)"/><path class="cls-9" d="M616.72,475.65c-1.74-1.69-13-.5-13.79,1.57-1.47,4-4.33,4.12-7.86,4.1-9.76,0-19.52,0-29.29,0l-10.4,39.41q12.4,0,24.91,0c-.5,4.17-2.19,5.74-6.18,5.68-6.73-.11-13.46-.14-20.19-.13l-1.06,4c8,0,16.09,0,24.13-.21,1.93,0,4.62-2.06,5.58-3.89q9.7-18.51,18.73-37.39c2.83-5.94,5.18-11.89,13.63-9.85.49.12,1.5,0,1.55-.23C616.72,477.67,617.2,476.12,616.72,475.65Z" transform="translate(-369.01 -432.02)"/></svg>